# xmcd
#
# Track frame offsets: 
#        150
#        28464
#        51607
#        79767
#        105297
#        126735
#        153652
#        182789
#        211502
#        232713
#        255597
#        269886
#        302280
#
# Disc length: 4275 seconds
#
# Revision: 0
# Processed by: cddbd v1.5.2PL0 Copyright (c) Steve Scherf et al.
# Submitted via: ExactAudioCopy v0.99pb4
#
DISCID=b310b10d
DTITLE=Blueground Undergrass - New Ground
DYEAR=2001
DGENRE=Bluegrass
TTITLE0=Everchanging Moment
TTITLE1=Life Is Short
TTITLE2=Eastern Star Road
TTITLE3=Dickey's Reel
TTITLE4=Judas
TTITLE5=Why'd You Have to Leave
TTITLE6=Highwayman
TTITLE7=Forget the Past
TTITLE8=Road to Damascus
TTITLE9=Take the Dirt
TTITLE10=Little Tiny Butter Biscuits
TTITLE11=Curve
TTITLE12=Midgets Under My Bed
EXTD=
EXTT0=
EXTT1=
EXTT2=
EXTT3=
EXTT4=
EXTT5=
EXTT6=
EXTT7=
EXTT8=
EXTT9=
EXTT10=
EXTT11=
EXTT12=
PLAYORDER=
